# This file uses centimeters as units for non-parametric coordinates.

mtllib rocket2.mtl
g default
v 0.299998 0.173204 -3.291958
v 0.173204 0.299998 -3.291958
v 0.000000 0.346409 -3.291958
v -0.173204 0.299998 -3.291958
v -0.299998 0.173204 -3.291958
v -0.346409 -0.000000 -3.291958
v -0.299998 -0.173204 -3.291958
v -0.173204 -0.299998 -3.291958
v 0.000000 -0.346409 -3.291958
v 0.173204 -0.299998 -3.291958
v 0.299998 -0.173204 -3.291958
v 0.346409 -0.000000 -3.291958
v -0.000161 -0.000093 7.589944
v -0.000093 -0.000161 7.589944
v 0.000000 -0.000186 7.589944
v 0.000093 -0.000161 7.589944
v 0.000161 -0.000093 7.589944
v 0.000186 0.000000 7.589944
v 0.000161 0.000093 7.589944
v 0.000093 0.000161 7.589944
v 0.000000 0.000186 7.589944
v -0.000093 0.000161 7.589944
v -0.000161 0.000093 7.589944
v -0.000186 0.000000 7.589944
v 0.000000 -0.000000 -3.291958
v 0.000000 0.000000 7.589944
v -1.000000 -0.000000 0.051772
v -0.860818 0.862160 -0.353645
v -0.862160 0.860818 -0.353645
v 0.000000 1.000000 0.051772
v 0.500000 0.866025 0.051772
v 1.131932 0.347316 -0.343157
v 1.134921 0.336167 -0.343157
v 0.866025 -0.500000 0.051772
v 0.500000 -0.866025 0.051772
v -0.334561 -1.134276 -0.341270
v -0.348045 -1.130663 -0.341270
v -0.866025 -0.500000 0.051772
v -1.000000 0.000000 2.511458
v -0.866025 0.500000 2.511458
v -0.500000 0.866025 2.511458
v 0.000000 1.000000 2.511458
v 0.500000 0.866025 2.511458
v 0.866025 0.500000 2.511458
v 1.000000 0.000000 2.511458
v 0.866025 -0.500000 2.511458
v 0.500000 -0.866025 2.511458
v 0.000000 -1.000000 2.511458
v -0.500000 -0.866025 2.511458
v -0.866025 -0.500000 2.511458
v -1.127153 1.630653 -5.027408
v -1.630653 1.127153 -5.027408
v -0.859514 0.861228 -0.350683
v -0.861228 0.859514 -0.350683
v -0.920605 -1.522801 -5.027408
v -0.232804 -1.707093 -5.027408
v -0.335881 -1.145332 -0.363058
v -0.353106 -1.140717 -0.363058
v 1.707093 0.232804 -5.027408
v 1.522801 0.920605 -5.027408
v 1.140245 0.351500 -0.361171
v 1.144062 0.337259 -0.361171
vt 0.635316 0.078125
vt 0.578125 0.020934
vt 0.500000 0.000000
vt 0.421875 0.020934
vt 0.364684 0.078125
vt 0.343750 0.156250
vt 0.364684 0.234375
vt 0.421875 0.291566
vt 0.500000 0.312500
vt 0.578125 0.291566
vt 0.635316 0.234375
vt 0.656250 0.156250
vt 0.375000 0.312500
vt 0.395833 0.312500
vt 0.416667 0.312500
vt 0.437500 0.312500
vt 0.458333 0.312500
vt 0.479167 0.312500
vt 0.500000 0.312500
vt 0.520833 0.312500
vt 0.541667 0.312500
vt 0.562500 0.312500
vt 0.583333 0.312500
vt 0.604167 0.312500
vt 0.625000 0.312500
vt 0.375000 0.688440
vt 0.395833 0.688440
vt 0.416667 0.688440
vt 0.437500 0.688440
vt 0.458333 0.688440
vt 0.479167 0.688440
vt 0.500000 0.688440
vt 0.520833 0.688440
vt 0.541667 0.688440
vt 0.562500 0.688440
vt 0.583333 0.688440
vt 0.604167 0.688440
vt 0.625000 0.688440
vt 0.635316 0.765625
vt 0.578125 0.708434
vt 0.500000 0.687500
vt 0.421875 0.708434
vt 0.364684 0.765625
vt 0.343750 0.843750
vt 0.364684 0.921875
vt 0.421875 0.979066
vt 0.500000 1.000000
vt 0.578125 0.979066
vt 0.635316 0.921875
vt 0.656250 0.843750
vt 0.500000 0.150000
vt 0.500000 0.837500
vt 0.479167 0.428017
vt 0.458333 0.428017
vt 0.437500 0.428017
vt 0.416667 0.428017
vt 0.395833 0.428017
vt 0.625000 0.428017
vt 0.375000 0.428017
vt 0.604167 0.428017
vt 0.583333 0.428017
vt 0.562500 0.428017
vt 0.541667 0.428017
vt 0.520833 0.428017
vt 0.500000 0.428017
vt 0.479167 0.512992
vt 0.458333 0.512992
vt 0.437500 0.512992
vt 0.416667 0.512992
vt 0.395833 0.512992
vt 0.625000 0.512992
vt 0.375000 0.512992
vt 0.604167 0.512992
vt 0.583333 0.512992
vt 0.562500 0.512992
vt 0.541667 0.512992
vt 0.520833 0.512992
vt 0.500000 0.512992
vt 0.437500 0.312500
vt 0.458333 0.312500
vt 0.458333 0.428017
vt 0.437500 0.428017
vt 0.520833 0.312500
vt 0.541667 0.312500
vt 0.541667 0.428017
vt 0.520833 0.428017
vt 0.604167 0.312500
vt 0.625000 0.312500
vt 0.625000 0.428017
vt 0.604167 0.428017
vn 0.572873 0.795116 -0.199014
vn 0.572873 0.795116 -0.199014
vn 0.623769 0.775910 -0.094217
vn 0.623769 0.775910 -0.094217
vn 0.254326 0.949156 -0.185529
vn 0.254326 0.949156 -0.185529
vn 0.257694 0.961724 -0.093170
vn 0.257694 0.961724 -0.093170
vn -0.096828 0.975177 -0.199135
vn -0.096828 0.975177 -0.199135
vn -0.149568 0.984283 -0.093892
vn -0.149568 0.984283 -0.093892
vn -0.698571 0.698571 0.154908
vn -0.698571 0.698571 0.154908
vn -0.698571 0.698571 0.154908
vn -0.698571 0.698571 0.154908
vn -0.975177 0.096828 -0.199135
vn -0.975177 0.096828 -0.199135
vn -0.984283 0.149568 -0.093892
vn -0.984283 0.149568 -0.093892
vn -0.949156 -0.254326 -0.185529
vn -0.949156 -0.254326 -0.185529
vn -0.961724 -0.257693 -0.093170
vn -0.961724 -0.257693 -0.093170
vn -0.794805 -0.573318 -0.198976
vn -0.794805 -0.573318 -0.198976
vn -0.775676 -0.624059 -0.094218
vn -0.775676 -0.624059 -0.094218
vn -0.257246 -0.960071 0.109943
vn -0.257246 -0.960071 0.109943
vn -0.257246 -0.960071 0.109943
vn -0.257246 -0.960071 0.109943
vn 0.361014 -0.911800 -0.195678
vn 0.361014 -0.911800 -0.195678
vn 0.325936 -0.940572 -0.095345
vn 0.325936 -0.940572 -0.095345
vn 0.694830 -0.694831 -0.185529
vn 0.694830 -0.694831 -0.185529
vn 0.704031 -0.704031 -0.093170
vn 0.704031 -0.704031 -0.093170
vn 0.911659 -0.361355 -0.195707
vn 0.911659 -0.361355 -0.195707
vn 0.940495 -0.326157 -0.095350
vn 0.940495 -0.326157 -0.095350
vn 0.960056 0.257244 0.110083
vn 0.960056 0.257244 0.110083
vn 0.960056 0.257244 0.110083
vn 0.960056 0.257244 0.110083
vn 0.000000 -0.000000 -1.000000
vn -0.276789 -0.074165 -0.958064
vn 0.000000 -0.000000 -1.000000
vn 0.000000 -0.000000 -1.000000
vn 0.186213 -0.186213 -0.964702
vn 0.186213 -0.186213 -0.964702
vn 0.000000 -0.000000 -1.000000
vn 0.000000 -0.000000 -1.000000
vn 0.074164 0.276789 -0.958065
vn 0.074164 0.276789 -0.958065
vn 0.000000 -0.000000 -1.000000
vn 0.000000 -0.000000 -1.000000
vn -0.276789 -0.074165 -0.958064
vn 0.000000 -0.006758 0.999977
vn 0.000000 0.000000 1.000000
vn 0.000000 0.000000 1.000000
vn 0.000000 0.000000 1.000000
vn 0.000000 0.003375 0.999994
vn 0.000000 -0.003383 0.999994
vn 0.000000 0.000000 1.000000
vn 0.000000 0.006758 0.999977
vn 0.000000 0.000000 1.000000
vn 0.000000 0.000000 1.000000
vn 0.000000 -0.003375 0.999994
vn 0.000000 0.003383 0.999994
vn 0.000000 0.000000 1.000000
vn -0.968440 0.228219 0.100201
vn -0.968440 0.228219 0.100201
vn -0.704379 0.704379 0.087756
vn -0.704379 0.704379 0.087756
vn -0.700391 0.700391 0.137492
vn -0.700391 0.700391 0.137492
vn -0.228219 0.968440 0.100201
vn -0.228219 0.968440 0.100201
vn 0.257677 0.961662 0.093856
vn 0.257677 0.961662 0.093856
vn 0.683224 0.723354 0.099814
vn 0.683224 0.723354 0.099814
vn 0.963138 0.258074 0.075913
vn 0.963138 0.258074 0.075913
vn 0.957524 0.256569 0.131604
vn 0.957524 0.256569 0.131604
vn 0.957465 -0.271780 0.096935
vn 0.957465 -0.271780 0.096935
vn 0.703985 -0.703985 0.093856
vn 0.703985 -0.703985 0.093856
vn 0.271733 -0.957479 0.096924
vn 0.271733 -0.957479 0.096924
vn -0.258079 -0.963161 0.075602
vn -0.258079 -0.963161 0.075602
vn -0.256573 -0.957544 0.131450
vn -0.256573 -0.957544 0.131450
vn -0.723288 -0.683298 0.099793
vn -0.723288 -0.683298 0.099793
vn -0.961662 -0.257677 0.093856
vn -0.961662 -0.257677 0.093856
vn -0.948908 0.254259 0.186883
vn -0.948908 0.254259 0.186883
vn -0.694649 0.694649 0.186883
vn -0.694649 0.694649 0.186883
vn -0.254259 0.948908 0.186883
vn -0.254259 0.948908 0.186883
vn 0.254259 0.948908 0.186883
vn 0.254259 0.948908 0.186883
vn 0.694649 0.694649 0.186883
vn 0.694649 0.694649 0.186883
vn 0.948908 0.254259 0.186883
vn 0.948908 0.254259 0.186883
vn 0.948908 -0.254259 0.186883
vn 0.948908 -0.254259 0.186883
vn 0.694649 -0.694649 0.186883
vn 0.694649 -0.694649 0.186883
vn 0.254259 -0.948908 0.186883
vn 0.254259 -0.948908 0.186883
vn -0.254259 -0.948908 0.186883
vn -0.254259 -0.948908 0.186883
vn -0.694649 -0.694649 0.186883
vn -0.694649 -0.694649 0.186883
vn -0.948908 -0.254259 0.186883
vn -0.948908 -0.254259 0.186883
vn 0.517573 -0.517572 -0.681350
vn 0.517573 -0.517572 -0.681350
vn -0.632357 -0.772321 0.060369
vn -0.632357 -0.772321 0.060369
vn -0.632357 -0.772321 0.060369
vn -0.632357 -0.772321 0.060369
vn -0.623841 0.623793 0.470856
vn -0.623841 0.623793 0.470856
vn -0.623841 0.623793 0.470856
vn -0.623841 0.623793 0.470856
vn 0.772321 0.632357 0.060369
vn 0.772321 0.632357 0.060369
vn 0.772321 0.632357 0.060369
vn 0.772321 0.632357 0.060369
vn 0.202885 0.757187 -0.620891
vn 0.202885 0.757187 -0.620891
vn 0.972233 -0.228811 0.049081
vn 0.972233 -0.228811 0.049081
vn 0.972233 -0.228811 0.049081
vn 0.972233 -0.228811 0.049081
vn -0.230952 -0.861918 0.451396
vn -0.230952 -0.861918 0.451396
vn -0.230952 -0.861918 0.451396
vn -0.230952 -0.861918 0.451396
vn -0.893783 0.442656 0.072162
vn -0.893783 0.442656 0.072162
vn -0.893783 0.442656 0.072162
vn -0.893783 0.442656 0.072162
vn -0.757187 -0.202885 -0.620891
vn -0.757187 -0.202885 -0.620891
vn -0.442464 0.893853 0.072475
vn -0.442464 0.893853 0.072475
vn -0.442464 0.893853 0.072475
vn -0.442464 0.893853 0.072475
vn 0.861892 0.231015 0.451413
vn 0.861892 0.231015 0.451413
vn 0.861892 0.231015 0.451413
vn 0.861892 0.231015 0.451413
vn 0.229294 -0.972100 0.049458
vn 0.229294 -0.972100 0.049458
vn 0.229294 -0.972100 0.049458
vn 0.229294 -0.972100 0.049458
s 1
g pCylinder1
usemtl initialShadingGroup
f 1/13/1 2/14/2 31/57/3 32/59/4
s 2
f 2/14/5 3/15/6 30/56/7 31/57/8
s 3
f 3/15/9 4/16/10 29/55/11 30/56/12
s off
f 51/79/13 52/80/14 53/81/15 54/82/16
s 4
f 5/17/17 6/18/18 27/53/19 28/54/20
s 5
f 6/18/21 7/19/22 38/65/23 27/53/24
s 6
f 7/19/25 8/20/26 37/64/27 38/65/28
s off
f 55/83/29 56/84/30 57/85/31 58/86/32
s 7
f 9/21/33 10/22/34 35/62/35 36/63/36
s 8
f 10/22/37 11/23/38 34/61/39 35/62/40
s 9
f 11/23/41 12/24/42 33/60/43 34/61/44
s off
f 59/87/45 60/88/46 61/89/47 62/90/48
s 10
f 2/2/49 1/1/50 25/51/51
f 3/3/52 2/2/49 25/51/51
f 4/4/53 3/3/52 25/51/51
f 5/5/54 4/4/53 25/51/51
f 6/6/55 5/5/54 25/51/51
f 7/7/56 6/6/55 25/51/51
f 8/8/57 7/7/56 25/51/51
f 9/9/58 8/8/57 25/51/51
f 10/10/59 9/9/58 25/51/51
f 11/11/60 10/10/59 25/51/51
f 12/12/61 11/11/60 25/51/51
f 1/1/50 12/12/61 25/51/51
s 11
f 13/49/62 14/48/63 26/52/64
f 14/48/63 15/47/65 26/52/64
f 15/47/65 16/46/66 26/52/64
f 16/46/66 17/45/67 26/52/64
f 17/45/67 18/44/68 26/52/64
f 18/44/68 19/43/69 26/52/64
f 19/43/69 20/42/70 26/52/64
f 20/42/70 21/41/71 26/52/64
f 21/41/71 22/40/72 26/52/64
f 22/40/72 23/39/73 26/52/64
f 23/39/73 24/50/74 26/52/64
f 24/50/74 13/49/62 26/52/64
s 4
f 28/54/20 27/53/19 39/66/75 40/67/76
s 12
f 29/55/77 28/54/78 40/67/79 41/68/80
s 3
f 30/56/12 29/55/11 41/68/81 42/69/82
s 2
f 31/57/8 30/56/7 42/69/83 43/70/84
s 1
f 32/59/4 31/57/3 43/70/85 44/72/86
s 13
f 33/60/87 32/58/88 44/71/89 45/73/90
s 9
f 34/61/44 33/60/43 45/73/91 46/74/92
s 8
f 35/62/40 34/61/39 46/74/93 47/75/94
s 7
f 36/63/36 35/62/35 47/75/95 48/76/96
s 14
f 37/64/97 36/63/98 48/76/99 49/77/100
s 6
f 38/65/28 37/64/27 49/77/101 50/78/102
s 5
f 27/53/24 38/65/23 50/78/103 39/66/104
s 4
f 40/67/76 39/66/75 18/31/105 17/30/106
s 12
f 41/68/80 40/67/79 17/30/107 16/29/108
s 3
f 42/69/82 41/68/81 16/29/109 15/28/110
s 2
f 43/70/84 42/69/83 15/28/111 14/27/112
s 1
f 44/72/86 43/70/85 14/27/113 13/26/114
s 13
f 45/73/90 44/71/89 13/38/115 24/37/116
s 9
f 46/74/92 45/73/91 24/37/117 23/36/118
s 8
f 47/75/94 46/74/93 23/36/119 22/35/120
s 7
f 48/76/96 47/75/95 22/35/121 21/34/122
s 14
f 49/77/100 48/76/99 21/34/123 20/33/124
s 6
f 50/78/102 49/77/101 20/33/125 19/32/126
s 5
f 39/66/104 50/78/103 19/32/127 18/31/128
s 10
f 4/16/53 5/17/54 52/80/129 51/79/130
s off
f 5/17/131 28/54/132 53/81/133 52/80/134
f 28/54/135 29/55/136 54/82/137 53/81/138
f 29/55/139 4/16/140 51/79/141 54/82/142
s 10
f 8/20/57 9/21/58 56/84/143 55/83/144
s off
f 9/21/145 36/63/146 57/85/147 56/84/148
f 36/63/149 37/64/150 58/86/151 57/85/152
f 37/64/153 8/20/154 55/83/155 58/86/156
s 10
f 12/24/61 1/25/50 60/88/157 59/87/158
s off
f 1/25/159 32/58/160 61/89/161 60/88/162
f 32/58/163 33/60/164 62/90/165 61/89/166
f 33/60/167 12/24/168 59/87/169 62/90/170
